<?xml version="1.0" standalone="no"?>
<!DOCTYPE svg PUBLIC "-//W3C//DTD SVG 20010904//EN"
 "http://www.w3.org/TR/2001/REC-SVG-20010904/DTD/svg10.dtd">
<svg version="1.0" xmlns="http://www.w3.org/2000/svg"
 width="333.000000pt" height="213.000000pt" viewBox="0 0 333.000000 213.000000"
 preserveAspectRatio="xMidYMid meet">

<g transform="translate(0.000000,213.000000) scale(0.100000,-0.100000)"
fill="#000000" stroke="none">
<path d="M1279 1992 c-13 -10 -44 -24 -69 -31 -57 -17 -66 -24 -96 -84 -24
-47 -27 -49 -57 -42 -18 3 -149 9 -292 12 -286 6 -290 5 -283 -53 2 -22 16
-37 46 -50 2 -1 -4 -39 -14 -84 -55 -274 50 -421 292 -408 74 4 84 2 79 -11
-4 -9 -15 -59 -26 -111 -11 -52 -21 -105 -24 -116 -4 -17 -17 -24 -67 -34
-157 -30 -285 -144 -341 -300 -27 -76 -27 -223 0 -300 96 -270 410 -392 662
-255 167 91 263 286 234 476 -26 167 -153 316 -310 366 -38 12 -53 22 -53 35
0 28 47 244 73 333 25 86 31 92 93 81 47 -9 90 -56 108 -120 69 -236 206 -478
304 -537 20 -12 38 -23 40 -24 1 -1 -13 -26 -33 -55 -20 -29 -36 -66 -36 -84
-5 -113 15 -173 77 -224 31 -26 34 -32 25 -51 -10 -19 -21 -21 -90 -21 -57 0
-82 -4 -91 -15 -13 -15 -16 -77 -5 -94 4 -7 65 -11 170 -11 l164 0 7 36 c4 20
2 46 -5 60 -9 22 -17 24 -72 24 -52 0 -60 2 -55 16 3 9 6 18 6 20 0 3 9 0 19
-6 41 -21 153 -11 368 35 19 4 27 -3 49 -47 32 -63 114 -151 172 -185 229
-135 536 -45 652 191 150 304 -70 665 -405 666 -59 0 -61 1 -80 37 -11 21 -43
70 -72 110 -28 40 -49 74 -45 77 4 2 39 7 77 11 92 9 115 24 115 75 0 81 -15
94 -150 129 -152 40 -300 50 -416 30 -56 -10 -65 -15 -90 -50 -39 -57 -45
-135 -13 -172 23 -25 29 -27 121 -28 91 -1 97 -3 88 -20 -6 -10 -15 -21 -20
-24 -39 -24 -146 -205 -181 -305 -12 -36 -26 -69 -30 -74 -13 -15 -91 32 -152
92 -103 101 -186 245 -271 472 -56 149 -91 191 -174 209 -28 6 -58 8 -66 5
-29 -11 -25 16 17 126 30 81 50 119 69 133 l27 20 19 -23 c17 -21 27 -23 173
-28 208 -7 324 3 349 30 41 45 30 151 -18 177 -13 7 -103 11 -245 11 -201 0
-227 -2 -248 -18z m429 -8 c67 -7 82 -24 82 -88 0 -51 -17 -64 -103 -75 -131
-18 -375 -7 -399 17 -18 18 -25 68 -14 102 10 32 15 35 61 41 72 8 301 10 373
3z m-468 -81 c0 -32 -6 -41 -34 -60 -29 -18 -40 -40 -88 -170 -103 -274 -177
-571 -212 -851 -21 -161 -21 -161 10 -172 41 -16 63 -50 64 -99 0 -36 -6 -49
-34 -77 -26 -26 -42 -34 -71 -34 -29 0 -45 8 -71 34 -46 46 -49 102 -10 146
20 22 26 48 45 215 33 295 103 570 216 850 90 222 110 252 168 254 13 1 17 -7
17 -36z m-222 -91 c50 -11 54 -14 46 -35 -11 -31 -318 -35 -488 -7 -70 11 -85
22 -65 46 12 15 36 16 239 11 124 -4 244 -10 268 -15z m-160 -81 c100 -1 182
-3 182 -5 0 -2 -15 -44 -34 -92 -28 -74 -67 -193 -105 -324 -8 -25 -9 -25
-117 -25 -124 1 -174 18 -215 76 -26 37 -48 120 -43 169 9 99 16 148 24 181
l10 35 57 -7 c32 -4 140 -8 241 -8z m346 -202 c67 -17 98 -57 147 -189 84
-231 177 -390 289 -494 34 -31 61 -58 59 -59 -6 -3 -71 -28 -89 -33 -23 -7
-94 48 -145 113 -59 76 -133 228 -186 381 -29 86 -50 132 -71 152 -30 31 -85
51 -119 45 -18 -4 -20 -1 -14 28 16 71 36 80 129 56z m1071 -113 c135 -30 178
-48 188 -79 5 -15 6 -38 3 -51 -5 -21 -15 -25 -83 -36 -86 -14 -459 -24 -510
-14 -46 9 -62 58 -39 119 20 51 41 72 81 78 57 10 290 -2 360 -17z m-148 -215
c2 -1 -18 -31 -44 -68 -60 -87 -118 -213 -140 -300 -10 -37 -19 -70 -20 -72
-1 -2 -23 0 -48 4 -45 6 -46 8 -40 33 26 103 122 272 207 364 39 42 54 49 85
39z m171 -43 c89 -122 185 -297 223 -407 24 -67 23 -71 0 -71 -40 0 -53 16
-122 157 -58 117 -116 221 -206 366 -2 4 12 7 31 7 31 0 40 -6 74 -52z m-15
-150 l27 -46 -53 -30 c-60 -34 -151 -123 -168 -164 -11 -27 -13 -28 -68 -22
-31 4 -59 10 -63 13 -12 11 29 146 68 224 20 40 59 105 87 145 l50 73 47 -73
c25 -40 58 -94 73 -120z m327 -60 c186 -59 310 -227 310 -418 0 -131 -55 -249
-156 -332 -92 -75 -164 -101 -284 -100 -127 1 -211 37 -307 130 -44 44 -102
137 -92 146 2 2 22 7 44 10 38 7 41 5 59 -29 28 -51 98 -113 162 -142 82 -37
197 -37 279 1 72 33 137 93 173 161 24 45 27 60 27 155 0 91 -3 111 -23 148
-55 103 -155 177 -253 189 -45 5 -51 9 -73 49 -13 23 -22 45 -19 48 8 7 114
-3 153 -16z m-1784 -4 c-3 -9 -6 -28 -6 -44 0 -24 -5 -29 -37 -35 -91 -17
-193 -101 -236 -195 -16 -35 -21 -67 -21 -140 -1 -84 2 -101 27 -151 33 -68
100 -132 171 -165 80 -36 202 -36 282 0 71 33 136 93 172 161 24 45 27 60 27
155 0 98 -2 109 -30 158 -39 71 -118 142 -183 166 -54 19 -56 23 -46 74 6 29
7 30 43 20 131 -36 250 -153 291 -286 40 -128 17 -281 -58 -380 -112 -150
-273 -213 -447 -177 -215 45 -362 249 -342 472 12 126 101 264 215 330 80 47
191 70 178 37z m1520 -50 c8 -20 14 -37 12 -39 -2 -1 -19 -10 -38 -20 -19 -10
-55 -39 -80 -64 -43 -46 -47 -47 -93 -43 -27 2 -46 9 -44 15 15 47 175 187
214 187 8 0 21 -16 29 -36z m-1541 -136 c-6 -82 -11 -96 -34 -121 -22 -24 -26
-37 -26 -87 0 -48 4 -63 25 -85 71 -77 191 -58 230 36 20 48 5 113 -35 147
-18 16 -37 31 -43 33 -13 6 7 159 22 159 31 0 116 -52 154 -94 64 -69 86 -125
86 -216 0 -125 -64 -227 -179 -288 -43 -23 -62 -27 -140 -27 -81 0 -95 3 -143
30 -189 104 -232 339 -93 498 42 47 131 100 179 107 2 0 0 -42 -3 -92z m1834
53 c49 -25 118 -101 144 -159 15 -34 21 -67 21 -122 0 -91 -22 -147 -85 -215
-120 -130 -311 -140 -443 -24 -41 37 -83 95 -74 104 2 2 80 18 173 35 94 17
183 36 199 42 34 14 66 62 66 101 0 35 -24 83 -49 96 -16 9 -53 96 -68 158 -5
20 -3 21 37 12 23 -5 58 -18 79 -28z m-229 -48 c17 -36 29 -68 27 -70 -4 -3
-139 13 -186 23 l-24 5 24 26 c25 27 107 83 121 83 4 0 21 -30 38 -67z m-271
-57 c184 -25 354 -46 378 -46 84 0 126 -88 69 -145 -28 -28 -18 -25 -236 -64
-91 -17 -262 -49 -380 -71 -197 -38 -287 -46 -307 -26 -3 3 0 19 7 36 12 28
16 30 54 27 52 -5 110 23 131 63 20 38 19 114 -1 146 -50 76 -189 71 -230 -7
-30 -60 -13 -159 31 -175 12 -5 11 -11 -2 -40 -9 -19 -20 -34 -24 -34 -13 0
-71 73 -85 106 -29 69 -11 155 44 216 73 81 63 81 551 14z m-323 -77 c50 -46
39 -134 -20 -170 -28 -17 -96 -27 -96 -14 0 3 11 28 25 55 27 54 15 71 -13 19
-37 -66 -38 -66 -61 -29 -37 58 -15 135 44 161 32 14 95 3 121 -22z m-75 -371
c6 -10 7 -28 4 -39 -6 -18 -14 -19 -153 -17 l-147 3 -3 32 c-4 39 0 40 166 40
111 0 124 -1 133 -19z"/>
<path d="M855 613 c-48 -11 -60 -75 -22 -111 30 -28 58 -28 85 1 50 53 8 126
-63 110z m55 -43 c8 -14 8 -26 0 -40 -14 -26 -56 -26 -70 -1 -13 25 -13 27 6
45 21 22 51 20 64 -4z"/>
<path d="M2504 620 c-43 -17 -32 -92 15 -98 52 -8 82 62 39 92 -25 18 -25 18
-54 6z m46 -44 c0 -28 -24 -41 -40 -21 -16 20 -5 45 20 45 14 0 20 -7 20 -24z"/>
</g>
</svg>
