<?xml version="1.0" standalone="no"?>
<!DOCTYPE svg PUBLIC "-//W3C//DTD SVG 20010904//EN"
 "http://www.w3.org/TR/2001/REC-SVG-20010904/DTD/svg10.dtd">
<svg version="1.0" xmlns="http://www.w3.org/2000/svg"
 width="254.000000pt" height="198.000000pt" viewBox="0 0 254.000000 198.000000"
 preserveAspectRatio="xMidYMid meet">

<g transform="translate(0.000000,198.000000) scale(0.100000,-0.100000)"
fill="#000000" stroke="none">
<path d="M903 1860 c-17 -10 -37 -28 -42 -39 -22 -41 -12 -66 59 -141 38 -41
70 -78 70 -81 0 -4 -11 -31 -24 -61 -13 -30 -38 -95 -56 -144 -28 -80 -47
-126 -126 -302 -13 -29 -24 -54 -24 -57 0 -2 -16 -39 -36 -82 -20 -43 -40 -87
-44 -99 -5 -12 -24 -25 -48 -32 -49 -15 -143 -83 -196 -142 -49 -55 -99 -161
-100 -214 -1 -52 47 -150 89 -181 16 -13 54 -31 83 -41 34 -12 54 -26 58 -39
25 -81 155 -131 261 -100 47 14 115 67 138 108 9 15 45 26 150 43 17 3 73 16
125 29 52 13 147 35 210 50 63 14 156 37 207 51 l91 26 32 -23 c27 -20 43 -24
108 -23 87 0 116 12 174 68 52 50 71 91 64 132 -6 27 0 44 34 98 69 113 75
181 28 294 -41 99 -89 150 -186 198 -76 38 -79 39 -187 39 -77 -1 -141 -8
-215 -24 -101 -22 -343 -97 -405 -125 -16 -8 -82 -35 -145 -62 -63 -26 -121
-52 -129 -58 -11 -9 -13 -6 -6 14 24 79 161 442 186 492 l19 37 62 -63 c76
-76 113 -88 182 -57 54 23 81 68 73 118 -8 44 -17 55 -103 119 -38 28 -117 96
-175 151 -57 54 -117 109 -133 121 -35 27 -81 28 -123 2z m363 -281 c73 -61
87 -79 61 -79 -17 0 -74 -60 -79 -83 -4 -26 -339 310 -354 355 -8 26 13 57 48
71 l31 13 109 -108 c60 -59 143 -135 184 -169z m-199 -136 c-27 -61 -125 -308
-159 -403 -11 -30 -26 -68 -33 -85 -10 -24 -84 -232 -100 -282 -5 -16 -78 -17
-106 -3 -10 6 -19 17 -19 24 0 11 52 132 128 296 78 170 95 210 118 269 42
109 74 183 100 233 13 27 24 56 24 65 0 13 9 8 37 -19 l36 -37 -26 -58z m333
11 c0 -39 -58 -93 -93 -87 -15 3 -27 12 -27 20 0 37 61 92 103 93 12 0 17 -8
17 -26z m520 -310 c126 -19 225 -128 237 -263 5 -56 5 -58 -30 -87 -49 -40
-252 -141 -318 -158 l-54 -13 -7 44 c-3 24 -12 51 -18 58 -9 11 -7 24 10 60
16 34 20 55 16 81 -9 44 -57 100 -101 115 -30 11 -33 16 -28 40 3 19 -2 39
-16 63 l-22 35 48 7 c26 3 80 12 118 19 39 7 81 11 95 10 14 -2 45 -7 70 -11z
m-346 -56 c20 -29 20 -67 0 -96 -26 -37 -12 -53 39 -46 53 7 81 -6 102 -46 21
-40 4 -103 -37 -141 l-29 -28 35 -15 c33 -14 36 -19 36 -54 0 -48 -7 -54 -90
-76 -36 -9 -114 -32 -175 -51 -269 -83 -617 -142 -790 -133 -143 7 -218 60
-218 153 0 45 33 114 71 148 21 19 21 19 17 -25 -5 -58 34 -117 90 -136 85
-29 226 3 255 58 19 35 12 99 -13 123 l-24 22 21 64 c22 63 22 63 81 87 33 13
69 28 80 33 55 25 504 181 522 181 6 0 19 -10 27 -22z m-930 -313 c-4 -8 -12
-15 -20 -15 -20 0 -17 18 4 23 9 3 18 5 19 6 1 0 0 -6 -3 -14z m-27 -59 c-8
-20 50 -75 88 -82 55 -10 78 -1 104 38 19 30 27 35 38 27 21 -18 15 -63 -10
-87 -61 -58 -228 -55 -251 3 -11 30 -6 78 11 97 19 21 27 23 20 4z m1496 -50
c-12 -22 -102 -89 -158 -118 -63 -32 -291 -107 -455 -149 -141 -36 -131 -33
-185 -43 -22 -4 -67 -13 -100 -21 -168 -39 -332 -58 -505 -59 -159 0 -179 1
-222 21 -56 25 -99 86 -106 150 -2 24 -2 43 1 43 3 0 15 -16 27 -35 28 -45 96
-92 162 -112 72 -21 250 -10 438 27 206 41 393 87 710 174 119 33 274 85 350
119 45 20 53 20 43 3z m-38 -143 c-30 -70 -62 -94 -161 -118 -41 -10 -57 -10
-82 1 -18 7 -32 17 -32 21 0 4 40 23 88 41 48 18 110 46 137 61 66 38 68 37
50 -6z m-1165 -315 c0 -4 -12 -15 -27 -26 -52 -35 -90 -45 -155 -39 -51 4 -66
10 -85 32 -13 14 -23 29 -23 33 0 4 65 8 145 7 80 0 145 -3 145 -7z"/>
<path d="M1698 1065 c-8 -19 -8 -31 0 -50 16 -34 74 -36 96 -3 21 29 20 33 -6
58 -31 29 -75 26 -90 -5z m67 -20 c0 -13 -8 -21 -22 -23 -17 -3 -23 2 -23 16
0 10 3 22 7 26 13 13 38 1 38 -19z"/>
<path d="M1802 798 c-18 -18 -15 -51 8 -76 27 -28 42 -28 77 2 27 24 27 26 13
53 -12 21 -24 29 -50 31 -19 2 -41 -3 -48 -10z m62 -17 c11 -18 -6 -41 -30
-41 -26 0 -32 18 -12 38 14 14 35 16 42 3z"/>
</g>
</svg>
